<svg xmlns="http://www.w3.org/2000/svg" width="512" height="512" viewBox="0 0 512 512" role="img" aria-label="شعار لؤلؤة الفنار العقارية"><defs><linearGradient id="sea" x1="0" x2="1"><stop offset="0%" stop-color="#0f766e"/><stop offset="100%" stop-color="#d6b35b"/></linearGradient><linearGradient id="pearl" x1="0" x2="1"><stop offset="0%" stop-color="#ffffff"/><stop offset="100%" stop-color="#dbeafe"/></linearGradient></defs><rect width="512" height="512" rx="90" fill="#f8fafc"/><circle cx="256" cy="220" r="160" fill="url(#sea)" opacity="0.14"/><circle cx="256" cy="220" r="130" fill="url(#pearl)" stroke="#cbd5e1" stroke-width="4"/><path d="M256 84c22 28 38 58 38 88v104h28v34H190v-34h28V172c0-30 16-60 38-88z" fill="#0f766e"/><rect x="243" y="145" width="26" height="28" rx="4" fill="#ffffff"/><circle cx="314" cy="153" r="20" fill="#d6b35b"/><path d="M334 153h60" stroke="#d6b35b" stroke-width="14" stroke-linecap="round"/><path d="M334 153l54-32" stroke="#d6b35b" stroke-width="10" stroke-linecap="round" opacity="0.9"/><path d="M334 153l54 32" stroke="#d6b35b" stroke-width="10" stroke-linecap="round" opacity="0.9"/><path d="M160 348c42-24 150-24 192 0" fill="none" stroke="#d6b35b" stroke-width="18" stroke-linecap="round"/><text x="256" y="440" text-anchor="middle" font-family="system-ui,Segoe UI,Arial" font-size="44" font-weight="900" fill="#0f172a" direction="rtl" unicode-bidi="bidi-override">الفنار</text></svg>