<svg xmlns="http://www.w3.org/2000/svg" width="920" height="220" viewBox="0 0 920 220" role="img" aria-label="شعار لؤلؤة الفنار العقارية"><defs><linearGradient id="sea" x1="0" x2="1"><stop offset="0%" stop-color="#0f766e"/><stop offset="100%" stop-color="#d6b35b"/></linearGradient><linearGradient id="pearl" x1="0" x2="1"><stop offset="0%" stop-color="#f8fafc"/><stop offset="100%" stop-color="#dbeafe"/></linearGradient></defs><rect width="920" height="220" rx="36" fill="#ffffff"/><g transform="translate(56 24)"><circle cx="86" cy="86" r="72" fill="url(#sea)" opacity="0.12"/><circle cx="86" cy="86" r="60" fill="url(#pearl)" stroke="#cbd5e1" stroke-width="2"/><path d="M86 20c10 12 18 26 18 40v47h13v18H55v-18h13V60c0-14 8-28 18-40z" fill="#0f766e"/><rect x="80" y="48" width="12" height="14" rx="2" fill="#ffffff"/><path d="M48 142c18-10 74-10 92 0" fill="none" stroke="#d6b35b" stroke-width="8" stroke-linecap="round"/><circle cx="114" cy="54" r="10" fill="#d6b35b"/><path d="M124 54h22" stroke="#d6b35b" stroke-width="6" stroke-linecap="round"/><path d="M124 54l20-12" stroke="#d6b35b" stroke-width="5" stroke-linecap="round" opacity="0.9"/><path d="M124 54l20 12" stroke="#d6b35b" stroke-width="5" stroke-linecap="round" opacity="0.9"/></g><text x="680" y="96" text-anchor="end" font-family="system-ui,Segoe UI,Arial" font-size="64" font-weight="900" fill="#0f172a" direction="rtl" unicode-bidi="bidi-override">لؤلؤة الفنار العقارية</text><text x="680" y="142" text-anchor="end" font-family="system-ui,Segoe UI,Arial" font-size="28" font-weight="700" fill="#475569" direction="rtl" unicode-bidi="bidi-override">بيع • شراء • إيجار • تسويق عقاري</text></svg>